<svg width="32" height="38" viewBox="0 0 32 38" fill="none" xmlns="http://www.w3.org/2000/svg">
<path d="M16 38L20.3301 30.5H11.6699L16 38Z" fill="#BCBCBC"/>
<circle cx="16" cy="16" r="16" fill="#BCBCBC"/>
<circle cx="16" cy="16" r="14" fill="#212121"/>
<g clip-path="url(#clip0_358_158)">
<path d="M20.5306 16.312C21.348 16.312 22.0891 16.6459 22.6282 17.185C22.9045 17.4599 23.1238 17.7868 23.2735 18.1467C23.4231 18.5067 23.5001 18.8927 23.5001 19.2825C23.5001 19.6723 23.4231 20.0583 23.2735 20.4183C23.1238 20.7783 22.9045 21.1051 22.6282 21.3801C22.3532 21.6564 22.0264 21.8757 21.6664 22.0254C21.3064 22.175 20.9205 22.252 20.5306 22.252C20.1408 22.252 19.7548 22.175 19.3948 22.0254C19.0349 21.8757 18.708 21.6564 18.4331 21.3801C18.1563 21.1051 17.9366 20.778 17.7867 20.4178C17.6368 20.0576 17.5596 19.6712 17.5596 19.281C17.5596 18.8909 17.6368 18.5045 17.7867 18.1443C17.9366 17.7841 18.1563 17.457 18.4331 17.182C18.7082 16.906 19.0351 16.6871 19.395 16.5378C19.755 16.3884 20.1409 16.3117 20.5306 16.312ZM22.1887 17.6244C21.9714 17.4068 21.7133 17.2342 21.4292 17.1164C21.1451 16.9986 20.8407 16.9379 20.5331 16.9377C20.2256 16.9376 19.921 16.9981 19.6369 17.1156C19.3527 17.2332 19.0944 17.4056 18.8769 17.6229C18.6593 17.8403 18.4867 18.0984 18.3689 18.3824C18.2511 18.6665 18.1904 18.971 18.1903 19.2785C18.1901 19.5861 18.2506 19.8906 18.3681 20.1748C18.4857 20.459 18.6581 20.7172 18.8754 20.9348C19.0924 21.1528 19.3503 21.3259 19.6344 21.444C19.9184 21.5621 20.223 21.6228 20.5306 21.6228C20.8382 21.6228 21.1428 21.5621 21.4269 21.444C21.7109 21.3259 21.9688 21.1528 22.1858 20.9348C22.4039 20.7178 22.5769 20.4599 22.695 20.1758C22.8131 19.8918 22.8739 19.5872 22.8739 19.2796C22.8739 18.972 22.8131 18.6674 22.695 18.3833C22.5769 18.0993 22.4068 17.8414 22.1887 17.6244ZM11.4666 16.312C12.2869 16.312 13.0281 16.6459 13.5642 17.185C13.8405 17.4599 14.0598 17.7868 14.2095 18.1467C14.3591 18.5067 14.4361 18.8927 14.4361 19.2825C14.4361 19.6723 14.3591 20.0583 14.2095 20.4183C14.0598 20.7783 13.8405 21.1051 13.5642 21.3801C13.2892 21.6564 12.9624 21.8757 12.6024 22.0254C12.2424 22.175 11.8564 22.252 11.4666 22.252C11.0768 22.252 10.6908 22.175 10.3308 22.0254C9.97085 21.8757 9.644 21.6564 9.36905 21.3801C9.09226 21.1051 8.87258 20.778 8.72268 20.4178C8.57278 20.0576 8.49561 19.6712 8.49561 19.281C8.49561 18.8909 8.57278 18.5045 8.72268 18.1443C8.87258 17.7841 9.09226 17.457 9.36905 17.182C9.64416 16.906 9.97108 16.6871 10.331 16.5378C10.691 16.3884 11.0769 16.3117 11.4666 16.312ZM13.1247 17.6244C12.6857 17.1854 12.0904 16.9388 11.4695 16.9388C10.8487 16.9388 10.2533 17.1854 9.81435 17.6244C9.37536 18.0634 9.12874 18.6588 9.12874 19.2796C9.12874 19.9004 9.37536 20.4958 9.81435 20.9348C10.0313 21.1528 10.2892 21.3259 10.5733 21.444C10.8573 21.5621 11.1619 21.6228 11.4695 21.6228C11.7772 21.6228 12.0817 21.5621 12.3658 21.444C12.6498 21.3259 12.9078 21.1528 13.1247 20.9348C13.3428 20.7178 13.5159 20.4599 13.6339 20.1758C13.752 19.8918 13.8128 19.5872 13.8128 19.2796C13.8128 18.972 13.752 18.6674 13.6339 18.3833C13.5159 18.0993 13.3428 17.8414 13.1247 17.6244Z" fill="#53FFAD"/>
<path d="M16.4907 15.3686L15.1108 13.9918L14.6978 14.6099C14.6027 14.7618 14.4666 14.8837 14.3052 14.9614C14.153 15.0289 13.9884 15.0638 13.8218 15.064H13.8131L11.3112 15.061C10.8513 15.061 10.5437 14.8736 10.3972 14.6333C10.3324 14.5275 10.2979 14.4059 10.2976 14.2818C10.2976 14.1587 10.3298 14.0386 10.3972 13.9302C10.5437 13.6871 10.8513 13.4996 11.3112 13.4996H13.3238L14.1705 12.0905L14.1763 12.0788C14.2248 12.0057 14.2797 11.937 14.3404 11.8737C14.4425 11.7611 14.5668 11.6707 14.7054 11.6082C14.844 11.5457 14.994 11.5124 15.146 11.5104C15.4356 11.5143 15.7173 11.6052 15.9546 11.7712C16.0548 11.8379 16.1489 11.9134 16.2358 11.9967L19.0189 14.5161L19.0276 14.5249L19.098 14.6011C19.3005 14.8788 19.3981 15.2192 19.3733 15.562C19.3721 15.8935 19.2562 16.2144 19.0452 16.4702C19.024 16.4929 19.0015 16.5145 18.9778 16.5346L18.9427 16.558L16.936 17.806V20.7033C16.9339 20.9481 16.8385 21.1828 16.6694 21.3596C16.4901 21.53 16.2518 21.6245 16.0044 21.6232H15.9897C15.7673 21.6227 15.5519 21.5451 15.3804 21.4035C15.2779 21.3175 15.1958 21.2098 15.1401 21.0882C15.0844 20.9666 15.0564 20.8342 15.0581 20.7004V17.5629C15.0581 16.6869 15.7495 16.0512 16.3618 15.4888L16.4877 15.3716L16.4907 15.3686ZM15.2837 13.2799L17.1586 15.1548L17.3783 15.3745L17.1557 15.5942C17.0385 15.7173 16.9125 15.8286 16.7865 15.9458C16.268 16.4233 15.688 16.9594 15.688 17.5629V20.6946C15.6856 20.7377 15.6927 20.7808 15.7089 20.8208C15.7252 20.8608 15.75 20.8967 15.7817 20.926C15.8403 20.9758 15.9194 20.9992 15.9897 20.9992H15.9956C16.0803 21.002 16.1629 20.9727 16.227 20.9172C16.2739 20.8733 16.3061 20.7942 16.3149 20.6711V17.4545L16.4614 17.3666L18.5911 16.0395L18.597 16.0366C18.6908 15.9399 18.7435 15.7436 18.7523 15.5356C18.7611 15.3247 18.72 15.1167 18.6204 14.9966C18.614 14.9884 18.6072 14.9806 18.5999 14.9732L15.8169 12.4508L15.811 12.445C15.7494 12.3864 15.6828 12.3335 15.6118 12.2868C15.4791 12.1914 15.3211 12.1374 15.1577 12.1315C15.088 12.1321 15.0191 12.1473 14.9555 12.176C14.892 12.2048 14.8351 12.2465 14.7886 12.2985C14.7539 12.3357 14.7225 12.3759 14.6949 12.4186L13.7633 13.9713L13.6724 14.1207H11.3112C11.0974 14.1207 10.9743 14.1793 10.9304 14.2466C10.9247 14.2559 10.9217 14.2665 10.9217 14.2774C10.9217 14.2883 10.9247 14.2989 10.9304 14.3082C10.9743 14.3785 11.0974 14.4341 11.3112 14.4341L13.8013 14.4371C13.8826 14.4385 13.9633 14.4235 14.0386 14.3931C14.0955 14.3636 14.1431 14.319 14.1763 14.2642V14.2613L14.8032 13.3238L15.0142 13.0074L15.2837 13.2799Z" fill="#53FFAD"/>
<path d="M12.0466 10.8425C12.0462 10.9453 12.0662 11.0472 12.1054 11.1423C12.1446 11.2374 12.2022 11.3238 12.2749 11.3965C12.3476 11.4692 12.434 11.5268 12.529 11.566C12.6241 11.6051 12.726 11.6251 12.8288 11.6247C12.9835 11.6252 13.1348 11.5796 13.2634 11.4939C13.3921 11.4081 13.4924 11.286 13.5514 11.143C13.6105 11.0001 13.6257 10.8428 13.5951 10.6912C13.5645 10.5396 13.4895 10.4006 13.3796 10.2918C13.3072 10.219 13.2211 10.1613 13.1263 10.122C13.0316 10.0826 12.93 10.0623 12.8274 10.0623C12.7247 10.0623 12.6231 10.0826 12.5284 10.122C12.4336 10.1613 12.3475 10.219 12.2751 10.2918C12.129 10.4378 12.0468 10.6359 12.0466 10.8425ZM11.8328 11.8386C11.6325 11.643 11.4954 11.392 11.4392 11.1177C11.383 10.8435 11.4102 10.5588 11.5174 10.3002C11.6246 10.0416 11.8069 9.82112 12.0406 9.66714C12.2744 9.51316 12.5489 9.43276 12.8288 9.43633C13.0137 9.43556 13.1969 9.4714 13.3679 9.54179C13.5388 9.61219 13.6941 9.71573 13.8249 9.84646C13.9556 9.9772 14.0591 10.1325 14.1295 10.3035C14.1999 10.4744 14.2358 10.6576 14.235 10.8425C14.2371 11.1218 14.1559 11.3953 14.0016 11.6281C13.8474 11.8609 13.6272 12.0424 13.3693 12.1494C13.1113 12.2563 12.8273 12.2839 12.5536 12.2285C12.2799 12.1731 12.0289 12.0374 11.8328 11.8386Z" fill="#53FFAD"/>
</g>
<defs>
<clipPath id="clip0_358_158">
<rect width="20" height="20" fill="white" transform="translate(6 6)"/>
</clipPath>
</defs>
</svg>
