<svg width="32" height="38" viewBox="0 0 32 38" fill="none" xmlns="http://www.w3.org/2000/svg">
<path d="M16 38L20.3301 30.5H11.6699L16 38Z" fill="#BCBCBC"/>
<circle cx="16" cy="16" r="16" fill="#BCBCBC"/>
<circle cx="16" cy="16" r="14" fill="#212121"/>
<g clip-path="url(#clip0_358_157)">
<path d="M22.3175 13.2858C22.1375 12.8745 21.9208 12.4804 21.67 12.1081C21.4283 11.7494 21.1527 11.4149 20.8468 11.1091C20.5415 10.8042 20.2058 10.5313 19.8449 10.2947C19.0882 9.80082 18.2471 9.45028 17.3636 9.26059C16.9182 9.16979 16.4647 9.12464 16.0101 9.12583H15.9223C15.0068 9.12387 14.1013 9.31556 13.2652 9.6883C12.8522 9.86785 12.457 10.0856 12.0846 10.3387C10.986 11.088 10.137 12.1491 9.64717 13.3854C9.29504 14.2227 9.11568 15.1225 9.11986 16.0308V16.0718C9.11598 17.4368 9.53563 18.7695 10.321 19.886C10.8053 20.6103 11.4311 21.2291 12.1607 21.7053C12.916 22.2 13.7562 22.5506 14.6391 22.7394C15.0785 22.8273 15.5297 22.8742 15.9955 22.8742H16.0746C16.993 22.8768 17.9015 22.6851 18.7405 22.3117C19.5555 21.9567 20.296 21.4508 20.923 20.8206C21.2272 20.5114 21.5 20.1729 21.7374 19.8099C22.2262 19.0573 22.5691 18.2196 22.7481 17.3403C22.836 16.9067 22.877 16.4614 22.877 16.0073V15.9282C22.8792 15.0175 22.6874 14.1167 22.3145 13.2858H22.3175ZM22.1856 11.7595C22.4493 12.152 22.6836 12.5768 22.8858 13.0368C23.2854 13.9487 23.4948 14.9326 23.501 15.9282V16.0073C23.5025 16.9845 23.3104 17.9524 22.9356 18.8548C22.7512 19.3068 22.5246 19.7403 22.2589 20.1497C21.7384 20.9492 21.0643 21.6373 20.2756 22.174C19.4562 22.7342 18.5359 23.1302 17.5657 23.34C17.0747 23.4452 16.5739 23.4982 16.0717 23.4982H15.9955C14.9996 23.4996 14.0138 23.2982 13.0982 22.9064C12.6506 22.7195 12.2211 22.492 11.815 22.2267C11.0194 21.7051 10.337 21.0286 9.8083 20.2376C9.53547 19.8372 9.30011 19.4126 9.10521 18.9691C8.70339 18.0551 8.49684 17.0673 8.49879 16.0688V16.0308C8.4975 14.8116 8.79124 13.6103 9.35494 12.5293C9.91864 11.4483 10.7356 10.5198 11.7359 9.82306C12.5549 9.26787 13.4713 8.87229 14.437 8.6571C14.9233 8.55457 15.4184 8.4989 15.9281 8.4989H16.016C17.0081 8.49812 17.9899 8.69948 18.9016 9.09067C19.3615 9.28695 19.7922 9.51253 20.1906 9.77619C20.9849 10.294 21.6619 10.969 22.1856 11.7595Z" fill="#53FFAD"/>
<path d="M22.7041 17.5424C22.8209 17.0391 22.8799 16.524 22.8799 16.0073V15.9282C22.8799 15.3775 22.809 14.8291 22.669 14.2965L21.9395 15.8433C21.9243 15.8756 21.9144 15.9103 21.9102 15.9458C21.9029 16.0013 21.9131 16.0576 21.9395 16.1069L21.9513 16.1304L22.7041 17.5424ZM23.3955 17.2612C23.3252 17.6713 23.2197 18.0726 23.0821 18.4681L22.8477 19.1419L22.5137 18.5121L21.4122 16.438C21.3623 16.361 21.3266 16.2756 21.3068 16.186C21.256 15.9801 21.281 15.7628 21.3771 15.5737L22.4405 13.318L22.7481 12.6647L23.0117 13.3385C23.3332 14.1643 23.5001 15.0421 23.5039 15.9282V16.0073C23.5039 16.4321 23.4658 16.851 23.3955 17.2612ZM19.5695 10.1248C19.1263 9.85825 18.6546 9.64208 18.1633 9.48029L18.0901 9.451C17.5676 9.2787 17.0251 9.17434 16.4759 9.14047L17.7151 10.3181C17.7444 10.3474 17.7737 10.365 17.803 10.3797C17.8323 10.3943 17.8616 10.4002 17.8938 10.4031C17.9182 10.4056 17.9427 10.4056 17.9671 10.4031L17.9934 10.3943L19.5695 10.1248ZM19.5197 9.37776C19.8801 9.57111 20.2287 9.79669 20.5656 10.0545L21.131 10.4881L20.4279 10.6082L18.096 11.0095C18.0136 11.0295 17.9284 11.0355 17.844 11.0271C17.6337 11.0103 17.4363 10.9189 17.2874 10.7693L15.477 9.05258L14.9496 8.55456L15.6762 8.51647C16.5599 8.46976 17.4447 8.58594 18.2864 8.85923L18.3626 8.8856C18.7668 9.01743 19.1535 9.18441 19.5197 9.37776ZM11.4107 10.8777C10.6107 11.5994 9.98895 12.4969 9.59443 13.4996L11.0592 12.6676H11.0621C11.1232 12.6374 11.1703 12.585 11.194 12.5212C11.2007 12.5069 11.2066 12.4922 11.2115 12.4772L11.2145 12.4538V12.4245L11.4107 10.8777ZM9.82879 11.7419C10.3151 11.0388 10.9186 10.4148 11.6334 9.89629L12.2164 9.46858L12.1285 10.1834L11.8355 12.5036C11.8296 12.5883 11.8098 12.6714 11.7769 12.7497C11.7004 12.9483 11.5547 13.1126 11.3668 13.2125L9.19894 14.4429L8.54858 14.8121L8.74486 14.0885C8.97923 13.236 9.34542 12.4479 9.82879 11.7419ZM9.7204 18.808C9.9326 19.2797 10.199 19.725 10.5143 20.135L10.5612 20.1966C10.8994 20.6394 11.2899 21.0397 11.7242 21.3889L11.3609 19.6956C11.3541 19.6595 11.3413 19.6249 11.3229 19.5931C11.2941 19.545 11.2511 19.5072 11.1998 19.4847L11.1764 19.473L9.7204 18.808ZM9.33956 19.4525C9.14773 19.0837 8.98702 18.6996 8.85912 18.3041L8.63647 17.6303L9.28097 17.9232L11.4195 18.9017C11.5054 18.933 11.5848 18.9797 11.6539 19.0394C11.8194 19.1713 11.9318 19.3586 11.9703 19.5667L12.5005 22.0334L12.6529 22.7394L12.0347 22.3644C11.6588 22.135 11.3056 21.8702 10.9801 21.5735C10.6462 21.2695 10.3403 20.9361 10.0661 20.5774L10.0192 20.513C9.76399 20.1793 9.5376 19.8245 9.34249 19.4525H9.33956ZM16.4466 22.8478C16.9612 22.8133 17.4703 22.7209 17.9641 22.5724L18.0403 22.549C18.5671 22.3897 19.0712 22.1632 19.5402 21.8752L17.8499 21.6262C17.814 21.6203 17.7774 21.6203 17.7415 21.6262C17.7107 21.6307 17.6809 21.6406 17.6536 21.6555C17.6403 21.6634 17.6276 21.6722 17.6155 21.6818C17.608 21.688 17.6012 21.6949 17.595 21.7024L17.5774 21.7199L16.4466 22.8478ZM16.9154 23.4337C16.5052 23.4835 16.0892 23.4982 15.6703 23.4806L14.9584 23.4513L15.4623 22.9474L17.1321 21.2864C17.2658 21.1455 17.4398 21.0493 17.6302 21.011C17.7338 20.9926 17.8397 20.9916 17.9436 21.0081L20.4103 21.3713L21.128 21.4768L20.5568 21.925C19.8598 22.4709 19.0683 22.884 18.2219 23.1437L18.1458 23.1671C17.7356 23.2931 17.3255 23.381 16.9154 23.4308V23.4337ZM16.889 13.567C16.8737 13.5437 16.8537 13.5238 16.8304 13.5084C16.8141 13.5 16.796 13.496 16.7777 13.4967H16.7425C16.7334 13.4985 16.7245 13.5014 16.7162 13.5055L16.6898 13.5172L13.9536 14.4136C13.9096 14.4283 13.8804 14.4429 13.8657 14.4664C13.8511 14.4898 13.8452 14.525 13.8452 14.5806L13.8804 17.4633C13.8804 17.5072 13.8921 17.5512 13.9126 17.5805C13.9272 17.5951 13.9419 17.6098 13.9595 17.6098L13.9887 17.6215L16.6869 18.4828L16.7162 18.4945L16.7396 18.4974C16.7522 18.4994 16.7649 18.5004 16.7777 18.5004C16.7957 18.5018 16.8138 18.4987 16.8304 18.4916C16.8538 18.4776 16.8738 18.4586 16.889 18.4359L18.6174 16.0923C18.635 16.063 18.6467 16.0366 18.6555 16.0102C18.6612 15.9922 18.6641 15.9735 18.6643 15.9546C18.6634 15.9415 18.6604 15.9287 18.6555 15.9165C18.6469 15.8903 18.6361 15.8648 18.6233 15.8403L16.889 13.567ZM17.1234 12.9577C17.2273 13.0157 17.3172 13.0956 17.387 13.192L19.1301 15.4771L19.1506 15.5093C19.1894 15.5744 19.2218 15.643 19.2473 15.7144C19.3016 15.8697 19.3026 16.0388 19.2502 16.1948C19.2256 16.2735 19.1922 16.3492 19.1506 16.4204L19.1301 16.4497L17.3899 18.805C17.3206 18.9018 17.2305 18.9819 17.1263 19.0394C16.9752 19.1219 16.7997 19.1479 16.6312 19.1126C16.5799 19.1035 16.5298 19.0888 16.4818 19.0687L13.8247 18.2191C13.6573 18.1825 13.5092 18.0855 13.4087 17.9467C13.3104 17.8079 13.2573 17.6422 13.2564 17.4721L13.2212 14.5865C13.2212 14.4019 13.2622 14.2437 13.356 14.1119C13.4549 13.9712 13.5984 13.868 13.7632 13.8189L16.4964 12.9225C16.586 12.8876 16.6816 12.8707 16.7777 12.8727C16.9007 12.8727 17.015 12.8991 17.1234 12.9577Z" fill="#53FFAD"/>
<path d="M16.6255 13.0309L17.4575 10.5115L18.0522 10.7078L17.2202 13.2272L16.6255 13.0309ZM19.0043 15.6675L21.6526 15.6909L21.6467 16.3149L18.9984 16.2885L19.0043 15.6675ZM17.1792 18.7494L17.9174 21.2483L17.3198 21.424L16.5815 18.9251L17.1792 18.7494ZM13.8512 18.0199L11.7331 19.6194L11.3552 19.1214L13.4791 17.5219L13.8512 18.0199ZM13.3649 14.5337L11.197 13.0104L11.5544 12.5006L13.7223 14.024L13.3649 14.5337Z" fill="#53FFAD"/>
</g>
<defs>
<clipPath id="clip0_358_157">
<rect width="20" height="20" fill="white" transform="translate(6 6)"/>
</clipPath>
</defs>
</svg>
