<svg width="18" height="18" viewBox="0 0 18 18" fill="none" xmlns="http://www.w3.org/2000/svg">
<path d="M7.32046 10.7751C6.88921 10.3446 6.62671 9.7596 6.62671 9.10335C6.62671 7.7886 7.68571 6.72885 8.99971 6.72885C9.64996 6.72885 10.2485 6.9921 10.6722 7.4226" stroke="#ADA4A5" stroke-width="1.2" stroke-linecap="round" stroke-linejoin="round"/>
<path d="M11.3287 9.52417C11.1547 10.4917 10.3927 11.2552 9.4259 11.4307" stroke="#ADA4A5" stroke-width="1.2" stroke-linecap="round" stroke-linejoin="round"/>
<path d="M4.99101 13.1042C3.80076 12.1697 2.79276 10.8047 2.06226 9.10298C2.80026 7.39373 3.81501 6.02123 5.01276 5.07923C6.20301 4.13723 7.57626 3.62573 8.99976 3.62573C10.4315 3.62573 11.804 4.14473 13.0018 5.09348" stroke="#ADA4A5" stroke-width="1.2" stroke-linecap="round" stroke-linejoin="round"/>
<path d="M14.5857 6.7431C15.1017 7.4286 15.5555 8.21985 15.9372 9.1026C14.462 12.5204 11.855 14.5791 8.99971 14.5791C8.35246 14.5791 7.71421 14.4741 7.10071 14.2694" stroke="#ADA4A5" stroke-width="1.2" stroke-linecap="round" stroke-linejoin="round"/>
<path d="M14.9153 3.18719L3.08484 15.0177" stroke="#ADA4A5" stroke-width="1.2" stroke-linecap="round" stroke-linejoin="round"/>
</svg>
