<svg width="12" height="16" viewBox="0 0 12 16" fill="none" xmlns="http://www.w3.org/2000/svg">
<mask id="mask0_6_318" style="mask-type:luminance" maskUnits="userSpaceOnUse" x="0" y="9" width="12" height="7">
<path fill-rule="evenodd" clip-rule="evenodd" d="M0 9.87207H11.8799V15.4026H0V9.87207Z" fill="white"/>
</mask>
<g mask="url(#mask0_6_318)">
<path fill-rule="evenodd" clip-rule="evenodd" d="M5.94063 10.9971C2.74488 10.9971 1.12488 11.5461 1.12488 12.6298C1.12488 13.7233 2.74488 14.2776 5.94063 14.2776C9.13563 14.2776 10.7549 13.7286 10.7549 12.6448C10.7549 11.5513 9.13563 10.9971 5.94063 10.9971M5.94063 15.4026C4.47138 15.4026 -0.00012207 15.4026 -0.00012207 12.6298C-0.00012207 10.1578 3.39063 9.87207 5.94063 9.87207C7.40988 9.87207 11.8799 9.87207 11.8799 12.6448C11.8799 15.1168 8.48988 15.4026 5.94063 15.4026" fill="#8A8788"/>
</g>
<mask id="mask1_6_318" style="mask-type:luminance" maskUnits="userSpaceOnUse" x="1" y="0" width="9" height="9">
<path fill-rule="evenodd" clip-rule="evenodd" d="M1.9574 0.500061H9.92242V8.46401H1.9574V0.500061Z" fill="white"/>
</mask>
<g mask="url(#mask1_6_318)">
<path fill-rule="evenodd" clip-rule="evenodd" d="M5.94068 1.57076C4.33493 1.57076 3.02843 2.87651 3.02843 4.48226C3.02318 6.08276 4.31993 7.38776 5.91893 7.39376L5.94068 7.92926V7.39376C7.54568 7.39376 8.85143 6.08726 8.85143 4.48226C8.85143 2.87651 7.54568 1.57076 5.94068 1.57076M5.94067 8.46401H5.91667C3.72517 8.45726 1.94992 6.67001 1.95742 4.48001C1.95742 2.28626 3.74392 0.499756 5.94067 0.499756C8.13667 0.499756 9.92242 2.28626 9.92242 4.48226C9.92242 6.67826 8.13667 8.46401 5.94067 8.46401" fill="#8A8788"/>
</g>
</svg>
